<svg xmlns="http://www.w3.org/2000/svg" width="1200.0" height="1599.0">
  <path d="M -0.5,553.5 C 0.5,553.5 1.5,553.5 2.5,553.5C 2.65466,624.876 2.98799,696.209 3.5,767.5C 2.16667,767.5 0.833333,767.5 -0.5,767.5C -0.5,696.167 -0.5,624.833 -0.5,553.5 Z" fill="#fefedf" />
  <path d="M -0.5,361.5 C 0.5,361.5 1.5,361.5 2.5,361.5C 2.83937,425.9 2.83937,489.9 2.5,553.5C 1.5,553.5 0.5,553.5 -0.5,553.5C -0.5,489.5 -0.5,425.5 -0.5,361.5 Z" fill="#fefef0" />
  <path d="M 193.5,21.5 C 171.143,22.2188 148.81,23.2188 126.5,24.5C 126.611,23.8826 126.944,23.3826 127.5,23C 130.146,22.5026 132.813,22.3359 135.5,22.5C 135.351,21.448 135.517,20.448 136,19.5C 136.779,20.7282 137.779,21.7282 139,22.5C 151.025,21.2336 163.192,20.5669 175.5,20.5C 181.676,20.5005 187.676,20.8338 193.5,21.5 Z" fill="#616264" />
  <path d="M 234.5,16.5 C 221.54,17.8647 208.54,18.5313 195.5,18.5C 195.5,19.5 195.5,20.5 195.5,21.5C 194.833,21.5 194.167,21.5 193.5,21.5C 187.676,20.8338 181.676,20.5005 175.5,20.5C 163.192,20.5669 151.025,21.2336 139,22.5C 137.779,21.7282 136.779,20.7282 136,19.5C 135.517,20.448 135.351,21.448 135.5,22.5C 132.813,22.3359 130.146,22.5026 127.5,23C 126.944,23.3826 126.611,23.8826 126.5,24.5C 123.5,24.5 120.5,24.5 117.5,24.5C 113.407,24.8566 109.407,24.8566 105.5,24.5C 104.784,25.311 103.95,25.9777 103,26.5C 98.8886,25.596 94.722,25.2627 90.5,25.5C 89.7701,24.2876 88.7701,23.2876 87.5,22.5C 90.607,20.9054 93.7736,20.5721 97,21.5C 102.988,20.4183 108.988,19.4183 115,18.5C 121.74,20.697 128.24,20.0303 134.5,16.5C 135.417,17.1272 136.417,17.4606 137.5,17.5C 144.834,18.6374 152.168,18.6374 159.5,17.5C 158.975,16.8076 158.308,16.3076 157.5,16C 158,15.8333 158.5,15.6667 159,15.5C 160.472,17.8844 162.638,18.8844 165.5,18.5C 173.314,16.1551 181.314,14.9885 189.5,15C 188.833,14.6667 188.167,14.3333 187.5,14C 192.056,14.0243 196.723,13.8576 201.5,13.5C 201.854,11.4588 201.854,9.62551 201.5,8C 202.5,7.33333 203.5,7.33333 204.5,8C 203.098,9.34247 203.431,10.1758 205.5,10.5C 206.949,9.72021 208.449,9.05354 210,8.5C 214.35,9.17191 214.517,10.3386 210.5,12C 213.022,11.5014 215.522,11.6681 218,12.5C 218.5,12.3333 219,12.1667 219.5,12C 218.672,11.0853 217.672,10.4186 216.5,10C 217.667,8.16667 218.833,6.33333 220,4.5C 223.089,7.35153 225.589,7.0182 227.5,3.5C 229.364,2.20719 231.364,2.20719 233.5,3.5C 234.439,7.76492 234.772,12.0983 234.5,16.5 Z" fill="#6f767e" />
  <path d="M 227.5,3.5 C 225.589,7.0182 223.089,7.35153 220,4.5C 218.833,6.33333 217.667,8.16667 216.5,10C 217.672,10.4186 218.672,11.0853 219.5,12C 219,12.1667 218.5,12.3333 218,12.5C 215.522,11.6681 213.022,11.5014 210.5,12C 214.517,10.3386 214.35,9.17191 210,8.5C 208.449,9.05354 206.949,9.72021 205.5,10.5C 203.431,10.1758 203.098,9.34247 204.5,8C 203.5,7.33333 202.5,7.33333 201.5,8C 201.854,9.62551 201.854,11.4588 201.5,13.5C 196.723,13.8576 192.056,14.0243 187.5,14C 188.167,14.3333 188.833,14.6667 189.5,15C 181.314,14.9885 173.314,16.1551 165.5,18.5C 162.638,18.8844 160.472,17.8844 159,15.5C 158.5,15.6667 158,15.8333 157.5,16C 158.308,16.3076 158.975,16.8076 159.5,17.5C 152.168,18.6374 144.834,18.6374 137.5,17.5C 137.389,16.8826 137.056,16.3826 136.5,16C 133.11,15.7537 129.777,15.2537 126.5,14.5C 121.835,15.3009 116.835,15.6342 111.5,15.5C 115.067,13.5899 119.067,12.2566 123.5,11.5C 125.32,11.6493 126.82,12.3159 128,13.5C 132.955,12.475 133.455,10.6417 129.5,8C 132.227,7.1816 134.894,7.34827 137.5,8.5C 138.026,10.2303 139.026,11.5637 140.5,12.5C 142.982,11.1028 145.648,10.2694 148.5,10C 149.333,9.16667 150.167,8.33333 151,7.5C 153.456,9.32131 156.289,9.98798 159.5,9.5C 166.838,8.52762 174.005,6.86095 181,4.5C 182.895,4.61485 184.562,5.28151 186,6.5C 187,5.83333 188,5.16667 189,4.5C 189.249,5.62402 189.749,6.62402 190.5,7.5C 195.166,4.59561 200.166,3.92894 205.5,5.5C 212.688,3.64824 220.021,2.98158 227.5,3.5 Z" fill="#778189" />
  <path d="M 235.5,-0.5 C 236.167,-0.5 236.833,-0.5 237.5,-0.5C 237.284,2.43166 237.951,5.09832 239.5,7.5C 238.751,11.831 238.084,16.1643 237.5,20.5C 236.167,20.5 234.833,20.5 233.5,20.5C 233.833,19.8333 234.167,19.1667 234.5,18.5C 235.49,12.3554 235.823,6.02207 235.5,-0.5 Z" fill="#b5ac8d" />
  <path d="M 234.5,16.5 C 234.5,17.1667 234.5,17.8333 234.5,18.5C 234.167,19.1667 233.833,19.8333 233.5,20.5C 220.817,20.3742 208.15,20.7075 195.5,21.5C 195.5,20.5 195.5,19.5 195.5,18.5C 208.54,18.5313 221.54,17.8647 234.5,16.5 Z" fill="#4c4f4d" />
  <path d="M 169.5,-0.5 C 191.5,-0.5 213.5,-0.5 235.5,-0.5C 235.823,6.02207 235.49,12.3554 234.5,18.5C 234.5,17.8333 234.5,17.1667 234.5,16.5C 234.772,12.0983 234.439,7.76492 233.5,3.5C 231.364,2.20719 229.364,2.20719 227.5,3.5C 220.021,2.98158 212.688,3.64824 205.5,5.5C 200.166,3.92894 195.166,4.59561 190.5,7.5C 189.749,6.62402 189.249,5.62402 189,4.5C 188,5.16667 187,5.83333 186,6.5C 184.562,5.28151 182.895,4.61485 181,4.5C 174.005,6.86095 166.838,8.52762 159.5,9.5C 159.5,8.5 159.5,7.5 159.5,6.5C 163.182,6.6653 166.848,6.49863 170.5,6C 167.424,4.14499 164.091,3.31166 160.5,3.5C 160.5,2.5 160.5,1.5 160.5,0.5C 163.713,0.810002 166.713,0.476669 169.5,-0.5 Z" fill="#82868a" />
  <path d="M -0.5,131.5 C 0.833333,131.5 2.16667,131.5 3.5,131.5C 2.83351,140.47 2.16685,149.47 1.5,158.5C 2.16925,202.321 2.83591,246.154 3.5,290C 2.89848,313.639 2.56515,337.472 2.5,361.5C 1.5,361.5 0.5,361.5 -0.5,361.5C -0.5,284.833 -0.5,208.167 -0.5,131.5 Z" fill="#fefefb" />
  <path d="M -0.5,123.5 C 2.12963,124.428 4.7963,125.428 7.5,126.5C 6.11276,128.21 4.77943,129.877 3.5,131.5C 2.16667,131.5 0.833333,131.5 -0.5,131.5C -0.5,128.833 -0.5,126.167 -0.5,123.5 Z" fill="#f9f3d5" />
  <path d="M 31.5,15.5 C 31.5412,17.7453 32.3745,18.4119 34,17.5C 36.4168,18.9985 39.0835,19.6651 42,19.5C 46.4716,18.392 50.9716,17.2254 55.5,16C 56.4252,14.8659 57.4252,13.6992 58.5,12.5C 58.7966,14.4296 60.13,16.0963 62.5,17.5C 63.6956,17.1543 63.6956,16.6543 62.5,16C 65.0282,15.4862 67.1949,14.3195 69,12.5C 75.2545,15.7269 81.7545,16.0603 88.5,13.5C 89.5,14 90.5,14.5 91.5,15C 91.1667,15.3333 90.8333,15.6667 90.5,16C 91.6667,16.1667 92.8333,16.3333 94,16.5C 99.8688,16.5496 105.702,16.2163 111.5,15.5C 116.835,15.6342 121.835,15.3009 126.5,14.5C 129.777,15.2537 133.11,15.7537 136.5,16C 137.056,16.3826 137.389,16.8826 137.5,17.5C 136.417,17.4606 135.417,17.1272 134.5,16.5C 128.24,20.0303 121.74,20.697 115,18.5C 108.988,19.4183 102.988,20.4183 97,21.5C 93.7736,20.5721 90.607,20.9054 87.5,22.5C 88.7701,23.2876 89.7701,24.2876 90.5,25.5C 88.8333,25.5 87.1667,25.5 85.5,25.5C 86.2341,24.2921 86.5674,22.9587 86.5,21.5C 84.4086,21.6816 82.4086,21.3482 80.5,20.5C 79.6143,21.325 79.281,22.325 79.5,23.5C 77.2075,23.2436 75.0408,23.5769 73,24.5C 72.0795,22.6858 70.5795,21.6858 68.5,21.5C 66.3948,22.0136 64.5614,22.3469 63,22.5C 60.049,19.819 57.3824,20.1523 55,23.5C 52.8458,22.7736 50.3458,22.6069 47.5,23C 46.8333,24 46.1667,25 45.5,26C 35.4731,27.305 25.4731,28.305 15.5,29C 16.5762,27.2739 16.7429,25.4406 16,23.5C 15.6667,24.5 15.3333,25.5 15,26.5C 13.1862,25.2404 11.3529,25.2404 9.5,26.5C 10.5175,27.8524 11.8508,28.8524 13.5,29.5C 8.88035,30.4933 4.21369,30.8266 -0.5,30.5C -0.5,26.1667 -0.5,21.8333 -0.5,17.5C 4.61347,15.3337 9.94681,13.667 15.5,12.5C 15.5,13.8333 15.5,15.1667 15.5,16.5C 19.9905,16.6687 24.1572,15.6687 28,13.5C 29.0769,14.4295 30.2436,15.0962 31.5,15.5 Z" fill="#7a7f8a" />
  <path d="M 18.5,31.5 C 21.5,31.5 24.5,31.5 27.5,31.5C 18.285,32.7502 8.95164,34.0835 -0.5,35.5C -0.5,34.5 -0.5,33.5 -0.5,32.5C 5.8778,32.7054 12.2111,32.3721 18.5,31.5 Z" fill="#867a68" />
  <path d="M -0.5,-0.5 C 22.1667,-0.5 44.8333,-0.5 67.5,-0.5C 67.0512,1.53289 66.0512,3.19956 64.5,4.5C 63.6858,6.76618 63.1858,9.09951 63,11.5C 62.0754,10.9535 61.2421,10.2868 60.5,9.5C 61.3256,8.54896 61.4922,7.54896 61,6.5C 59.6439,7.38017 58.1439,7.71351 56.5,7.5C 56.9492,5.02253 56.2825,3.02253 54.5,1.5C 50.9779,3.1105 49.6445,5.6105 50.5,9C 49.0913,13.0093 47.7579,13.176 46.5,9.5C 44.1889,10.2135 42.0223,11.2135 40,12.5C 39.6667,11.8333 39.3333,11.1667 39,10.5C 37.3963,11.6493 35.7297,11.6493 34,10.5C 31.8434,11.385 31.0101,13.0516 31.5,15.5C 30.2436,15.0962 29.0769,14.4295 28,13.5C 24.1572,15.6687 19.9905,16.6687 15.5,16.5C 15.5,15.1667 15.5,13.8333 15.5,12.5C 9.94681,13.667 4.61347,15.3337 -0.5,17.5C -0.5,11.5 -0.5,5.5 -0.5,-0.5 Z" fill="#848992" />
  <path d="M 67.5,-0.5 C 101.5,-0.5 135.5,-0.5 169.5,-0.5C 166.713,0.476669 163.713,0.810002 160.5,0.5C 160.5,1.5 160.5,2.5 160.5,3.5C 164.091,3.31166 167.424,4.14499 170.5,6C 166.848,6.49863 163.182,6.6653 159.5,6.5C 159.5,7.5 159.5,8.5 159.5,9.5C 156.289,9.98798 153.456,9.32131 151,7.5C 150.167,8.33333 149.333,9.16667 148.5,10C 145.648,10.2694 142.982,11.1028 140.5,12.5C 139.026,11.5637 138.026,10.2303 137.5,8.5C 134.894,7.34827 132.227,7.1816 129.5,8C 133.455,10.6417 132.955,12.475 128,13.5C 126.82,12.3159 125.32,11.6493 123.5,11.5C 119.067,12.2566 115.067,13.5899 111.5,15.5C 105.702,16.2163 99.8688,16.5496 94,16.5C 92.8333,16.3333 91.6667,16.1667 90.5,16C 90.8333,15.6667 91.1667,15.3333 91.5,15C 90.5,14.5 89.5,14 88.5,13.5C 81.7545,16.0603 75.2545,15.7269 69,12.5C 67.1949,14.3195 65.0282,15.4862 62.5,16C 63.6956,16.6543 63.6956,17.1543 62.5,17.5C 60.13,16.0963 58.7966,14.4296 58.5,12.5C 57.4252,13.6992 56.4252,14.8659 55.5,16C 50.9716,17.2254 46.4716,18.392 42,19.5C 39.0835,19.6651 36.4168,18.9985 34,17.5C 32.3745,18.4119 31.5412,17.7453 31.5,15.5C 31.0101,13.0516 31.8434,11.385 34,10.5C 35.7297,11.6493 37.3963,11.6493 39,10.5C 39.3333,11.1667 39.6667,11.8333 40,12.5C 42.0223,11.2135 44.1889,10.2135 46.5,9.5C 47.7579,13.176 49.0913,13.0093 50.5,9C 49.6445,5.6105 50.9779,3.1105 54.5,1.5C 56.2825,3.02253 56.9492,5.02253 56.5,7.5C 58.1439,7.71351 59.6439,7.38017 61,6.5C 61.4922,7.54896 61.3256,8.54896 60.5,9.5C 61.2421,10.2868 62.0754,10.9535 63,11.5C 63.1858,9.09951 63.6858,6.76618 64.5,4.5C 66.0512,3.19956 67.0512,1.53289 67.5,-0.5 Z" fill="#808892" />
  <path d="M 85.5,25.5 C 62.9076,26.8425 40.5743,28.8425 18.5,31.5C 12.2111,32.3721 5.8778,32.7054 -0.5,32.5C -0.5,31.8333 -0.5,31.1667 -0.5,30.5C 4.21369,30.8266 8.88035,30.4933 13.5,29.5C 11.8508,28.8524 10.5175,27.8524 9.5,26.5C 11.3529,25.2404 13.1862,25.2404 15,26.5C 15.3333,25.5 15.6667,24.5 16,23.5C 16.7429,25.4406 16.5762,27.2739 15.5,29C 25.4731,28.305 35.4731,27.305 45.5,26C 46.1667,25 46.8333,24 47.5,23C 50.3458,22.6069 52.8458,22.7736 55,23.5C 57.3824,20.1523 60.049,19.819 63,22.5C 64.5614,22.3469 66.3948,22.0136 68.5,21.5C 70.5795,21.6858 72.0795,22.6858 73,24.5C 75.0408,23.5769 77.2075,23.2436 79.5,23.5C 79.281,22.325 79.6143,21.325 80.5,20.5C 82.4086,21.3482 84.4086,21.6816 86.5,21.5C 86.5674,22.9587 86.2341,24.2921 85.5,25.5 Z" fill="#71737d" />
  <path d="M 117.5,24.5 C 114.014,25.5333 110.347,26.3666 106.5,27C 80.1821,28.8327 53.8487,30.3327 27.5,31.5C 24.5,31.5 21.5,31.5 18.5,31.5C 40.5743,28.8425 62.9076,26.8425 85.5,25.5C 87.1667,25.5 88.8333,25.5 90.5,25.5C 94.722,25.2627 98.8886,25.596 103,26.5C 103.95,25.9777 104.784,25.311 105.5,24.5C 109.407,24.8566 113.407,24.8566 117.5,24.5 Z" fill="#716b68" />
  <path d="M 749.5,405.5 C 749.833,405.5 750.167,405.5 750.5,405.5C 751.449,407.737 752.116,410.071 752.5,412.5C 748.094,407.25 742.427,404.917 735.5,405.5C 736.492,403.974 737.992,403.307 740,403.5C 743.076,404.694 746.243,405.361 749.5,405.5 Z" fill="#dbd2aa" />
  <path d="M 750.5,405.5 C 770.883,423.716 790.049,443.049 808,463.5C 820.552,489.661 826.052,516.994 824.5,545.5C 823.961,542.304 822.294,539.97 819.5,538.5C 819.5,537.5 819.5,536.5 819.5,535.5C 820.38,533.863 821.046,532.03 821.5,530C 820.253,523.35 820.253,516.683 821.5,510C 819.645,506.095 818.478,501.928 818,497.5C 817.184,496.177 816.017,495.511 814.5,495.5C 811.478,488.857 809.644,481.857 809,474.5C 803.353,462.524 795.186,452.691 784.5,445C 778.476,437.978 772.143,431.311 765.5,425C 760.004,422.003 755.671,417.837 752.5,412.5C 752.116,410.071 751.449,407.737 750.5,405.5 Z" fill="#f2e8ba" />
  <path d="M 631.5,372.5 C 629.716,374.948 628.382,377.615 627.5,380.5C 623.513,381.705 619.513,381.705 615.5,380.5C 616.26,379.107 616.926,377.607 617.5,376C 617.156,374.635 616.489,373.468 615.5,372.5C 615.863,371.817 616.196,371.15 616.5,370.5C 617.817,370.179 619.151,369.846 620.5,369.5C 624.009,371.115 627.675,372.115 631.5,372.5 Z" fill="#f8f1be" />
  <path d="M 631.5,372.5 C 641.045,373.179 650.378,375.013 659.5,378C 662.167,380 664.833,382 667.5,384C 675.269,385.62 682.936,387.62 690.5,390C 706.086,399.719 723.086,403.719 741.5,402C 744.599,402.387 747.266,403.554 749.5,405.5C 746.243,405.361 743.076,404.694 740,403.5C 737.992,403.307 736.492,403.974 735.5,405.5C 731.121,405.922 726.788,406.589 722.5,407.5C 709.957,404.485 697.957,399.985 686.5,394C 677.533,391.207 668.533,388.54 659.5,386C 657.308,385.074 655.308,383.907 653.5,382.5C 654.66,381.735 655.66,380.735 656.5,379.5C 654.392,378.645 652.226,377.978 650,377.5C 646.974,378.872 643.807,379.538 640.5,379.5C 636.143,379.586 631.81,379.92 627.5,380.5C 628.382,377.615 629.716,374.948 631.5,372.5 Z" fill="#f5efc0" />
  <path d="M 616.5,370.5 C 616.196,371.15 615.863,371.817 615.5,372.5C 616.489,373.468 617.156,374.635 617.5,376C 616.926,377.607 616.26,379.107 615.5,380.5C 612.833,380.5 610.167,380.5 607.5,380.5C 610.231,378.054 612.231,375.054 613.5,371.5C 614.209,370.596 615.209,370.263 616.5,370.5 Z" fill="#d9d1a4" />
  <path d="M 613.5,371.5 C 612.231,375.054 610.231,378.054 607.5,380.5C 598.195,381.354 588.861,381.687 579.5,381.5C 580.68,379.087 582.68,378.087 585.5,378.5C 585.5,377.5 585.5,376.5 585.5,375.5C 595.071,375.541 604.405,374.208 613.5,371.5 Z" fill="#f2ecbe" />
  <path d="M 653.5,382.5 C 649.052,381.598 644.719,380.598 640.5,379.5C 643.807,379.538 646.974,378.872 650,377.5C 652.226,377.978 654.392,378.645 656.5,379.5C 655.66,380.735 654.66,381.735 653.5,382.5 Z" fill="#cec8a9" />
  <path d="M 576.5,375.5 C 579.5,375.5 582.5,375.5 585.5,375.5C 585.5,376.5 585.5,377.5 585.5,378.5C 582.68,378.087 580.68,379.087 579.5,381.5C 565.837,381.376 552.504,383.376 539.5,387.5C 541.809,385.013 544.476,383.013 547.5,381.5C 548.15,381.804 548.817,382.137 549.5,382.5C 552.439,380.489 555.439,379.489 558.5,379.5C 565.331,382.017 571.331,380.684 576.5,375.5 Z" fill="#e4deb7" />
  <path d="M 523.5,393.5 C 519.302,395.433 515.635,398.099 512.5,401.5C 512.989,398.533 514.155,395.867 516,393.5C 516.308,394.308 516.808,394.975 517.5,395.5C 518.54,393.625 520.04,392.292 522,391.5C 523.03,391.836 523.53,392.503 523.5,393.5 Z" fill="#d1cfad" />
  <path d="M 547.5,381.5 C 544.476,383.013 541.809,385.013 539.5,387.5C 534.475,390.068 529.141,392.068 523.5,393.5C 523.53,392.503 523.03,391.836 522,391.5C 520.04,392.292 518.54,393.625 517.5,395.5C 516.808,394.975 516.308,394.308 516,393.5C 514.155,395.867 512.989,398.533 512.5,401.5C 509.386,407.908 504.386,412.241 497.5,414.5C 496.962,412.883 496.629,411.216 496.5,409.5C 503.362,406.802 508.529,402.135 512,395.5C 514.884,392.315 518.051,389.482 521.5,387C 529.982,384.337 538.648,382.504 547.5,381.5 Z" fill="#f5f4c9" />
  <path d="M 576.5,375.5 C 571.331,380.684 565.331,382.017 558.5,379.5C 555.439,379.489 552.439,380.489 549.5,382.5C 548.817,382.137 548.15,381.804 547.5,381.5C 548.6,380.442 549.934,379.608 551.5,379C 559.863,377.893 568.197,376.726 576.5,375.5 Z" fill="#f7f3c6" />
  <path d="M 443.5,511.5 C 442.833,512.167 442.833,512.167 443.5,511.5 Z" fill="#fafdf9" />
  <path d="M 443.5,510.5 C 444.833,511.167 444.833,511.167 443.5,510.5 Z" fill="#f4f5f4" />
  <path d="M 446.5,507.5 C 445.833,508.167 445.833,508.167 446.5,507.5 Z" fill="#f7f8f7" />
  <path d="M 441.5,513.5 C 439.57,517.1 436.903,520.1 433.5,522.5C 435.43,518.9 438.097,515.9 441.5,513.5 Z" fill="#d5d6d6" />
  <path d="M 449.5,503.5 C 448.833,504.167 448.833,504.167 449.5,503.5 Z" fill="#f8f9f6" />
  <path d="M 449.5,502.5 C 450.833,503.167 450.833,503.167 449.5,502.5 Z" fill="#fefffc" />
  <path d="M 450.5,500.5 C 451.833,501.167 451.833,501.167 450.5,500.5 Z" fill="#fefffc" />
  <path d="M 433.5,522.5 C 430.814,527.872 428.147,533.205 425.5,538.5C 425.5,537.833 425.5,537.167 425.5,536.5C 426.125,530.586 428.791,525.92 433.5,522.5 Z" fill="#dcdcd4" />
  <path d="M 448.5,504.5 C 448.672,505.492 448.338,506.158 447.5,506.5C 447.328,505.508 447.662,504.842 448.5,504.5 Z" fill="#f8f8f8" />
  <path d="M 452.5,497.5 C 452.631,498.239 452.464,498.906 452,499.5C 451.308,498.563 451.475,497.897 452.5,497.5 Z" fill="#fefffe" />
  <path d="M 447.5,506.5 C 446.833,507.167 446.833,507.167 447.5,506.5 Z" fill="#fbfcfb" />
  <path d="M 425.5,539.5 C 425.401,542.237 425.735,544.904 426.5,547.5C 425.069,547.119 424.236,546.119 424,544.5C 423.167,545.5 422.333,546.5 421.5,547.5C 421.167,547 420.833,546.5 420.5,546C 422.182,543.807 423.848,541.641 425.5,539.5 Z" fill="#cac8ad" />
  <path d="M 442.5,512.5 C 441.833,513.167 441.833,513.167 442.5,512.5 Z" fill="#f0f3ef" />
  <path d="M 425.5,536.5 C 425.5,537.167 425.5,537.833 425.5,538.5C 425.5,538.833 425.5,539.167 425.5,539.5C 423.848,541.641 422.182,543.807 420.5,546C 420.833,546.5 421.167,547 421.5,547.5C 422.333,546.5 423.167,545.5 424,544.5C 424.236,546.119 425.069,547.119 426.5,547.5C 429.222,577.486 431.889,607.486 434.5,637.5C 433.85,637.196 433.183,636.863 432.5,636.5C 432.814,627.859 431.98,619.193 430,610.5C 429.667,611.167 429.333,611.833 429,612.5C 427.498,610.205 427.332,607.872 428.5,605.5C 426.42,596.366 426.42,587.199 428.5,578C 427.287,576.37 426.454,574.536 426,572.5C 425.283,573.044 424.783,573.711 424.5,574.5C 424.279,564.926 421.945,555.76 417.5,547C 420.4,543.61 423.066,540.11 425.5,536.5 Z" fill="#f4f4cf" />
  <path d="M 465.5,442.5 C 466.568,443.434 467.901,443.768 469.5,443.5C 469.5,444.833 469.5,446.167 469.5,447.5C 465.925,453.978 462.925,460.645 460.5,467.5C 460.771,465.62 460.104,464.287 458.5,463.5C 457.461,458.771 456.461,453.938 455.5,449C 459.036,447.071 462.369,444.904 465.5,442.5 Z" fill="#f2f1d4" />
  <path d="M 496.5,409.5 C 496.629,411.216 496.962,412.883 497.5,414.5C 496.833,415.833 495.833,416.833 494.5,417.5C 494.5,415.5 494.5,413.5 494.5,411.5C 494.833,410.5 495.5,409.833 496.5,409.5 Z" fill="#c8c59f" />
  <path d="M 456.5,483.5 C 456.39,488.622 455.056,493.288 452.5,497.5C 453.261,492.563 454.595,487.897 456.5,483.5 Z" fill="#e6e6e7" />
  <path d="M 494.5,411.5 C 494.5,413.5 494.5,415.5 494.5,417.5C 487.536,424.965 480.369,432.298 473,439.5C 471.907,442.309 470.74,444.976 469.5,447.5C 469.5,446.167 469.5,444.833 469.5,443.5C 467.901,443.768 466.568,443.434 465.5,442.5C 466.82,439.194 468.653,436.194 471,433.5C 479.057,426.272 486.89,418.939 494.5,411.5 Z" fill="#f2eec8" />
  <path d="M 458.5,463.5 C 460.104,464.287 460.771,465.62 460.5,467.5C 459.768,473.094 458.435,478.427 456.5,483.5C 457.167,476.833 457.833,470.167 458.5,463.5 Z" fill="#e5e6dd" />
  <path d="M 438.5,809.5 C 442.473,820.781 444.639,832.448 445,844.5C 449.754,859.932 453.588,875.598 456.5,891.5C 455.931,895.247 456.264,899.08 457.5,903C 456.231,906.494 456.231,909.994 457.5,913.5C 457.276,916.08 456.609,918.414 455.5,920.5C 455.666,914.824 455.499,909.157 455,903.5C 454.934,899.767 454.101,896.267 452.5,893C 453.987,888.921 453.32,885.254 450.5,882C 451.167,881.667 451.833,881.333 452.5,881C 450.982,877.807 449.648,874.474 448.5,871C 448.957,870.586 449.291,870.086 449.5,869.5C 447.978,866.36 447.145,863.027 447,859.5C 445.412,857.41 443.578,855.743 441.5,854.5C 439.613,843.954 436.947,833.62 433.5,823.5C 435.426,824.242 437.259,825.242 439,826.5C 439.5,826 440,825.5 440.5,825C 438.507,823.379 436.507,821.713 434.5,820C 435.09,818.491 435.756,816.991 436.5,815.5C 437.451,816.326 438.451,816.492 439.5,816C 436.526,813.758 436.193,811.592 438.5,809.5 Z" fill="#f2e7be" />
  <path d="M 441.5,854.5 C 443.578,855.743 445.412,857.41 447,859.5C 447.145,863.027 447.978,866.36 449.5,869.5C 449.291,870.086 448.957,870.586 448.5,871C 449.648,874.474 450.982,877.807 452.5,881C 451.833,881.333 451.167,881.667 450.5,882C 453.32,885.254 453.987,888.921 452.5,893C 454.101,896.267 454.934,899.767 455,903.5C 455.499,909.157 455.666,914.824 455.5,920.5C 455.662,925.182 454.495,929.515 452,933.5C 447.198,940.79 441.698,947.456 435.5,953.5C 431.475,956.863 427.475,960.196 423.5,963.5C 419.154,963.334 414.821,963.501 410.5,964C 405.025,966.128 399.358,967.295 393.5,967.5C 400.69,963.943 408.357,961.443 416.5,960C 438.744,948.535 450.411,930.202 451.5,905C 449.726,887.848 446.392,871.015 441.5,854.5 Z" fill="#fcecbf" />
  <path d="M 415.5,783.5 C 416.678,787.176 418.178,790.843 420,794.5C 422.782,796.771 424.949,799.437 426.5,802.5C 423.488,800.152 420.488,797.818 417.5,795.5C 416.05,794.15 415.383,792.484 415.5,790.5C 415.5,788.167 415.5,785.833 415.5,783.5 Z" fill="#e5d7b8" />
  <path d="M 434.5,637.5 C 435.946,643.274 436.612,649.274 436.5,655.5C 435.732,654.737 435.232,653.737 435,652.5C 434.501,648.179 434.334,643.846 434.5,639.5C 434.5,638.833 434.5,638.167 434.5,637.5 Z" fill="#d2cfae" />
  <path d="M 434.5,639.5 C 434.334,643.846 434.501,648.179 435,652.5C 435.232,653.737 435.732,654.737 436.5,655.5C 436.5,656.833 436.5,658.167 436.5,659.5C 436.575,662.206 436.908,664.873 437.5,667.5C 437.539,668.756 437.039,669.756 436,670.5C 434.378,669.901 432.878,669.234 431.5,668.5C 423.736,664.831 416.903,666.165 411,672.5C 405.061,683.064 402.894,694.397 404.5,706.5C 405.112,715.509 405.945,724.509 407,733.5C 413.393,749.521 416.226,766.188 415.5,783.5C 415.5,785.833 415.5,788.167 415.5,790.5C 414.85,788.553 413.683,786.887 412,785.5C 412.249,776.843 412.249,768.177 412,759.5C 410.584,754.585 409.584,749.585 409,744.5C 404.015,735.245 401.182,725.245 400.5,714.5C 398.394,698.58 401.061,683.58 408.5,669.5C 410.186,668.143 411.852,666.81 413.5,665.5C 416.693,664.989 419.859,664.322 423,663.5C 425.501,663.584 427.834,664.25 430,665.5C 430.945,665.095 431.612,664.428 432,663.5C 432.333,664.167 432.667,664.833 433,665.5C 432.579,659.71 432.412,653.71 432.5,647.5C 432.804,644.614 433.471,641.948 434.5,639.5 Z" fill="#faf7cc" />
  <path d="M 400.5,714.5 C 401.182,725.245 404.015,735.245 409,744.5C 409.584,749.585 410.584,754.585 412,759.5C 412.249,768.177 412.249,776.843 412,785.5C 413.683,786.887 414.85,788.553 415.5,790.5C 415.383,792.484 416.05,794.15 417.5,795.5C 420.488,797.818 423.488,800.152 426.5,802.5C 428.851,804.07 431.518,804.903 434.5,805C 436.041,806.371 437.375,807.871 438.5,809.5C 436.193,811.592 436.526,813.758 439.5,816C 438.451,816.492 437.451,816.326 436.5,815.5C 435.756,816.991 435.09,818.491 434.5,820C 436.507,821.713 438.507,823.379 440.5,825C 440,825.5 439.5,826 439,826.5C 437.259,825.242 435.426,824.242 433.5,823.5C 431.533,820.784 430.033,817.784 429,814.5C 422.103,807.689 416.436,800.022 412,791.5C 409.905,774.401 407.238,757.401 404,740.5C 399.765,732.085 398.599,723.418 400.5,714.5 Z" fill="#fcf3c1" />
  <path d="M 434.5,637.5 C 434.5,638.167 434.5,638.833 434.5,639.5C 433.471,641.948 432.804,644.614 432.5,647.5C 432.412,653.71 432.579,659.71 433,665.5C 432.667,664.833 432.333,664.167 432,663.5C 431.612,664.428 430.945,665.095 430,665.5C 427.834,664.25 425.501,663.584 423,663.5C 419.859,664.322 416.693,664.989 413.5,665.5C 418.158,663.097 422.991,660.764 428,658.5C 428.773,644.807 428.106,631.14 426,617.5C 424.896,603.187 424.396,588.854 424.5,574.5C 424.783,573.711 425.283,573.044 426,572.5C 426.454,574.536 427.287,576.37 428.5,578C 426.42,587.199 426.42,596.366 428.5,605.5C 427.332,607.872 427.498,610.205 429,612.5C 429.333,611.833 429.667,611.167 430,610.5C 431.98,619.193 432.814,627.859 432.5,636.5C 433.183,636.863 433.85,637.196 434.5,637.5 Z" fill="#fdfdcc" />
  <path d="M 436.5,659.5 C 438.157,662.089 438.491,664.756 437.5,667.5C 436.908,664.873 436.575,662.206 436.5,659.5 Z" fill="#b6b396" />
  <path d="M 431.5,668.5 C 427.493,667.996 423.493,667.83 419.5,668C 411.627,672.884 407.127,680.051 406,689.5C 405.827,695.348 405.327,701.015 404.5,706.5C 402.894,694.397 405.061,683.064 411,672.5C 416.903,666.165 423.736,664.831 431.5,668.5 Z" fill="#d1c7b0" />
  <path d="M 815.5,747.5 C 815.5,750.833 815.5,754.167 815.5,757.5C 811.673,754.075 811.673,750.742 815.5,747.5 Z" fill="#b8a489" />
  <path d="M 816.5,746.5 C 815.971,767.604 816.971,788.604 819.5,809.5C 818.308,812.487 816.975,815.321 815.5,818C 815.675,819.658 816.342,820.991 817.5,822C 816.69,827.751 816.19,833.584 816,839.5C 815.667,838.833 815.333,838.167 815,837.5C 814.396,844.409 812.896,851.076 810.5,857.5C 808.784,857.629 807.117,857.962 805.5,858.5C 806.807,855.275 807.807,851.941 808.5,848.5C 809.552,848.649 810.552,848.483 811.5,848C 810.663,846.989 810.33,845.822 810.5,844.5C 811.5,844.5 812.5,844.5 813.5,844.5C 814.203,835.851 814.536,827.185 814.5,818.5C 815.282,798.177 815.616,777.843 815.5,757.5C 815.5,754.167 815.5,750.833 815.5,747.5C 815.5,746.833 815.833,746.5 816.5,746.5 Z" fill="#decfa8" />
  <path d="M 818.5,743.5 C 818.628,745.09 819.295,746.423 820.5,747.5C 821.48,746.019 822.647,744.685 824,743.5C 824.383,744.056 824.883,744.389 825.5,744.5C 823.051,752.595 821.718,760.928 821.5,769.5C 823.298,791.593 822.464,813.593 819,835.5C 815.382,849.851 810.882,863.851 805.5,877.5C 803.328,872.737 802.994,867.737 804.5,862.5C 804.833,861.167 805.167,859.833 805.5,858.5C 807.117,857.962 808.784,857.629 810.5,857.5C 812.896,851.076 814.396,844.409 815,837.5C 815.333,838.167 815.667,838.833 816,839.5C 816.19,833.584 816.69,827.751 817.5,822C 816.342,820.991 815.675,819.658 815.5,818C 816.975,815.321 818.308,812.487 819.5,809.5C 816.971,788.604 815.971,767.604 816.5,746.5C 816.427,744.973 817.094,743.973 818.5,743.5 Z" fill="#f5e3b3" />
  <path d="M 846.5,671.5 C 847.5,671.5 848.5,671.5 849.5,671.5C 849.5,672.5 849.5,673.5 849.5,674.5C 848.167,673.833 847.167,672.833 846.5,671.5 Z" fill="#6d6f5d" />
  <path d="M 852.5,677.5 C 851.833,677.5 851.167,677.5 850.5,677.5C 850.5,676.833 850.5,676.167 850.5,675.5C 850.56,674.957 850.893,674.624 851.5,674.5C 852.386,675.325 852.719,676.325 852.5,677.5 Z" fill="#4b492d" />
  <path d="M 850.5,677.5 C 851.167,677.5 851.833,677.5 852.5,677.5C 852.5,677.833 852.5,678.167 852.5,678.5C 850.254,679.455 847.921,680.122 845.5,680.5C 846.965,679.263 848.632,678.263 850.5,677.5 Z" fill="#98906d" />
  <path d="M 855.5,673.5 C 856.249,674.531 856.915,675.698 857.5,677C 856.206,679.087 855.039,681.254 854,683.5C 849.072,686.09 846.072,690.09 845,695.5C 842.957,697.208 841.29,699.208 840,701.5C 837.808,715.518 833.142,728.518 826,740.5C 825.51,741.793 825.343,743.127 825.5,744.5C 824.883,744.389 824.383,744.056 824,743.5C 822.647,744.685 821.48,746.019 820.5,747.5C 819.295,746.423 818.628,745.09 818.5,743.5C 818.328,742.508 818.662,741.842 819.5,741.5C 822.471,738.246 824.971,734.58 827,730.5C 827.333,731.167 827.667,731.833 828,732.5C 829.551,729.132 830.717,725.632 831.5,722C 831.355,721.228 831.022,720.561 830.5,720C 834.207,712.641 836.207,704.807 836.5,696.5C 837.008,691.784 837.842,687.118 839,682.5C 841.007,681.331 843.173,680.665 845.5,680.5C 847.921,680.122 850.254,679.455 852.5,678.5C 853.496,678.586 854.329,678.252 855,677.5C 854.669,675.981 854.836,674.648 855.5,673.5 Z" fill="#fceeb8" />
  <path d="M 836.5,696.5 C 836.207,704.807 834.207,712.641 830.5,720C 831.022,720.561 831.355,721.228 831.5,722C 830.717,725.632 829.551,729.132 828,732.5C 827.667,731.833 827.333,731.167 827,730.5C 824.971,734.58 822.471,738.246 819.5,741.5C 826.184,726.768 831.851,711.768 836.5,696.5 Z" fill="#f4ebc0" />
  <path d="M 814.5,495.5 C 816.017,495.511 817.184,496.177 818,497.5C 818.478,501.928 819.645,506.095 821.5,510C 820.253,516.683 820.253,523.35 821.5,530C 821.046,532.03 820.38,533.863 819.5,535.5C 819.654,525.63 819.154,515.63 818,505.5C 817.321,501.961 816.154,498.628 814.5,495.5 Z" fill="#d5caa1" />
  <path d="M 819.5,538.5 C 822.294,539.97 823.961,542.304 824.5,545.5C 824.634,547.292 824.301,548.958 823.5,550.5C 822.24,548.633 820.573,547.3 818.5,546.5C 819.265,543.904 819.599,541.237 819.5,538.5 Z" fill="#d9cba0" />
  <path d="M 818.5,546.5 C 820.573,547.3 822.24,548.633 823.5,550.5C 822.132,564.219 820.465,577.886 818.5,591.5C 817.5,591.5 816.5,591.5 815.5,591.5C 814.869,593.975 813.869,596.309 812.5,598.5C 813.75,581.073 815.75,563.74 818.5,546.5 Z" fill="#f2e5b8" />
  <path d="M 815.5,591.5 C 816.5,591.5 817.5,591.5 818.5,591.5C 818.678,592.695 819.011,593.862 819.5,595C 817.18,605.984 814.847,616.984 812.5,628C 811.767,635.566 814.433,641.566 820.5,646C 828.45,650.284 834.784,656.284 839.5,664C 841.611,664.845 843.611,665.678 845.5,666.5C 842.02,666.18 838.686,666.013 835.5,666C 834.671,664.184 833.837,662.351 833,660.5C 828.44,654.948 822.94,650.448 816.5,647C 815.207,646.51 813.873,646.343 812.5,646.5C 811.574,643.905 809.907,641.905 807.5,640.5C 809.015,638.453 809.849,636.119 810,633.5C 810.333,627.5 810.667,621.5 811,615.5C 812.248,607.38 813.748,599.38 815.5,591.5 Z" fill="#fcf2bc" />
  <path d="M 812.5,646.5 C 813.873,646.343 815.207,646.51 816.5,647C 822.94,650.448 828.44,654.948 833,660.5C 833.837,662.351 834.671,664.184 835.5,666C 838.686,666.013 842.02,666.18 845.5,666.5C 848.262,667.38 850.929,668.546 853.5,670C 854.823,670.816 855.489,671.983 855.5,673.5C 854.836,674.648 854.669,675.981 855,677.5C 854.329,678.252 853.496,678.586 852.5,678.5C 852.5,678.167 852.5,677.833 852.5,677.5C 852.719,676.325 852.386,675.325 851.5,674.5C 850.893,674.624 850.56,674.957 850.5,675.5C 849.833,675.5 849.5,675.167 849.5,674.5C 849.5,673.5 849.5,672.5 849.5,671.5C 848.5,671.5 847.5,671.5 846.5,671.5C 842.46,671.882 838.793,670.882 835.5,668.5C 829.736,659.067 822.07,651.734 812.5,646.5 Z" fill="#f6f1c5" />
  <path d="M 815.5,591.5 C 813.748,599.38 812.248,607.38 811,615.5C 810.667,621.5 810.333,627.5 810,633.5C 809.849,636.119 809.015,638.453 807.5,640.5C 809.907,641.905 811.574,643.905 812.5,646.5C 806.795,644.424 804.795,640.424 806.5,634.5C 807.268,633.737 807.768,632.737 808,631.5C 808.498,628.183 808.665,624.85 808.5,621.5C 809.509,613.778 810.842,606.112 812.5,598.5C 813.869,596.309 814.869,593.975 815.5,591.5 Z" fill="#f1ebc4" />
  <path d="M 808.5,621.5 C 808.665,624.85 808.498,628.183 808,631.5C 807.768,632.737 807.268,633.737 806.5,634.5C 806.335,630.818 806.501,627.152 807,623.5C 807.278,622.584 807.778,621.918 808.5,621.5 Z" fill="#7e775f" />
  <path d="M 1199.5,461.5 C 1199.5,474.167 1199.5,486.833 1199.5,499.5C 1197.28,499.614 1195.28,500.28 1193.5,501.5C 1193.11,500.033 1192.77,498.533 1192.5,497C 1193.63,494.518 1194.8,492.018 1196,489.5C 1196.62,479.95 1197.79,470.616 1199.5,461.5 Z" fill="#fef7cf" />
  <path d="M 1199.5,499.5 C 1199.5,529.833 1199.5,560.167 1199.5,590.5C 1197.83,590.5 1196.17,590.5 1194.5,590.5C 1194.25,566.156 1194.58,541.823 1195.5,517.5C 1195.47,512.072 1194.81,506.738 1193.5,501.5C 1195.28,500.28 1197.28,499.614 1199.5,499.5 Z" fill="#fdeab8" />
  <path d="M 1191.5,394.5 C 1190.83,395.167 1190.83,395.167 1191.5,394.5 Z" fill="#fefde3" />
  <path d="M 1199.5,416.5 C 1199.5,419.5 1199.5,422.5 1199.5,425.5C 1198.17,422.5 1198.17,419.5 1199.5,416.5 Z" fill="#fefffe" />
  <path d="M 1194.5,390.5 C 1196.17,390.5 1197.83,390.5 1199.5,390.5C 1199.5,395.833 1199.5,401.167 1199.5,406.5C 1198.63,402.979 1197.8,399.312 1197,395.5C 1195.3,394.594 1193.47,394.261 1191.5,394.5C 1192.5,393.167 1193.5,391.833 1194.5,390.5 Z" fill="#fefde5" />
  <path d="M 1199.5,433.5 C 1199.5,439.167 1199.5,444.833 1199.5,450.5C 1198.17,444.833 1198.17,439.167 1199.5,433.5 Z" fill="#fefffe" />
  <path d="M 1194.5,287.5 C 1196.17,287.5 1197.83,287.5 1199.5,287.5C 1199.5,321.833 1199.5,356.167 1199.5,390.5C 1197.83,390.5 1196.17,390.5 1194.5,390.5C 1195.14,386.33 1195.8,382.164 1196.5,378C 1195.42,359.368 1194.42,340.535 1193.5,321.5C 1194.48,310.218 1194.81,298.885 1194.5,287.5 Z" fill="#fcecbb" />
  <path d="M 1194.5,590.5 C 1196.17,590.5 1197.83,590.5 1199.5,590.5C 1199.5,721.5 1199.5,852.5 1199.5,983.5C 1197.83,983.5 1196.17,983.5 1194.5,983.5C 1194.33,852.481 1194.33,721.481 1194.5,590.5 Z" fill="#fce6b0" />
  <path d="M 1195.5,-0.5 C 1196.83,-0.5 1198.17,-0.5 1199.5,-0.5C 1199.5,95.5 1199.5,191.5 1199.5,287.5C 1197.83,287.5 1196.17,287.5 1194.5,287.5C 1194.42,191.37 1194.76,95.3701 1195.5,-0.5 Z" fill="#f8e7b2" />
  <path d="M 883.5,1114.5 C 885.6,1116.5 887.6,1118.66 889.5,1121C 895.254,1122.1 901.087,1122.6 907,1122.5C 948.733,1120.72 990.567,1119.06 1032.5,1117.5C 1029.5,1118.17 1026.5,1118.83 1023.5,1119.5C 1015.52,1120.28 1007.52,1120.61 999.5,1120.5C 989.616,1120.19 979.95,1120.86 970.5,1122.5C 962.981,1122.18 955.648,1122.51 948.5,1123.5C 930.834,1123.86 913.167,1124.19 895.5,1124.5C 892.167,1124.5 888.833,1124.5 885.5,1124.5C 885.149,1121.1 884.482,1117.76 883.5,1114.5 Z" fill="#f6deb6" />
  <path d="M 887.5,1125.5 C 890.167,1125.5 892.833,1125.5 895.5,1125.5C 907.5,1125.5 919.5,1125.5 931.5,1125.5C 920.015,1126.66 908.348,1127.33 896.5,1127.5C 893.5,1127.5 890.5,1127.5 887.5,1127.5C 887.5,1126.83 887.5,1126.17 887.5,1125.5 Z" fill="#4e3a3d" />
  <path d="M 872.5,1103.5 C 874.433,1104.64 875.933,1106.31 877,1108.5C 877.672,1112.73 879.172,1116.39 881.5,1119.5C 883.12,1120.84 884.12,1122.67 884.5,1125C 885.448,1125.48 886.448,1125.65 887.5,1125.5C 887.5,1126.17 887.5,1126.83 887.5,1127.5C 887.158,1128.34 886.492,1128.67 885.5,1128.5C 878.825,1121.49 874.491,1113.15 872.5,1103.5 Z" fill="#f3abaa" />
  <path d="M 851.5,1071.5 C 853.837,1073.67 856.337,1075.67 859,1077.5C 862.342,1083.66 866.675,1089 872,1093.5C 876.874,1099.91 880.707,1106.91 883.5,1114.5C 884.482,1117.76 885.149,1121.1 885.5,1124.5C 888.833,1124.5 892.167,1124.5 895.5,1124.5C 895.5,1124.83 895.5,1125.17 895.5,1125.5C 892.833,1125.5 890.167,1125.5 887.5,1125.5C 886.448,1125.65 885.448,1125.48 884.5,1125C 884.12,1122.67 883.12,1120.84 881.5,1119.5C 878.744,1104.4 871.078,1092.4 858.5,1083.5C 856.167,1079.5 853.833,1075.5 851.5,1071.5 Z" fill="#f8d5b1" />
  <path d="M 886.5,1131.5 C 889.252,1135.45 891.419,1139.79 893,1144.5C 893.708,1145.38 894.542,1146.05 895.5,1146.5C 897.625,1149.09 898.958,1152.09 899.5,1155.5C 899.674,1157.86 900.007,1160.19 900.5,1162.5C 898.065,1158.06 895.899,1153.4 894,1148.5C 893,1147.5 892,1146.5 891,1145.5C 889.772,1140.72 888.272,1136.05 886.5,1131.5 Z" fill="#f9c0d7" />
  <path d="M 887.5,1127.5 C 890.5,1127.5 893.5,1127.5 896.5,1127.5C 895.152,1128.6 893.652,1129.6 892,1130.5C 891.584,1136.17 892.751,1141.5 895.5,1146.5C 894.542,1146.05 893.708,1145.38 893,1144.5C 891.419,1139.79 889.252,1135.45 886.5,1131.5C 885.596,1130.79 885.263,1129.79 885.5,1128.5C 886.492,1128.67 887.158,1128.34 887.5,1127.5 Z" fill="#eed6e6" />
  <path d="M 858.5,1083.5 C 871.078,1092.4 878.744,1104.4 881.5,1119.5C 879.172,1116.39 877.672,1112.73 877,1108.5C 875.933,1106.31 874.433,1104.64 872.5,1103.5C 871.527,1100.87 869.86,1098.87 867.5,1097.5C 864.5,1092.83 861.5,1088.17 858.5,1083.5 Z" fill="#fdc8b5" />
  <path d="M 948.5,1123.5 C 955.022,1123.18 961.355,1123.51 967.5,1124.5C 955.51,1125.12 943.51,1125.46 931.5,1125.5C 919.5,1125.5 907.5,1125.5 895.5,1125.5C 895.5,1125.17 895.5,1124.83 895.5,1124.5C 913.167,1124.19 930.834,1123.86 948.5,1123.5 Z" fill="#573f36" />
  <path d="M 1023.5,1119.5 C 1026.83,1119.5 1030.17,1119.5 1033.5,1119.5C 1042.83,1119.5 1052.17,1119.5 1061.5,1119.5C 1030.33,1121.33 998.996,1123 967.5,1124.5C 961.355,1123.51 955.022,1123.18 948.5,1123.5C 955.648,1122.51 962.981,1122.18 970.5,1122.5C 980.354,1122.36 990.021,1121.7 999.5,1120.5C 1007.52,1120.61 1015.52,1120.28 1023.5,1119.5 Z" fill="#5a4744" />
  <path d="M 999.5,1120.5 C 990.021,1121.7 980.354,1122.36 970.5,1122.5C 979.95,1120.86 989.616,1120.19 999.5,1120.5 Z" fill="#c2a890" />
  <path d="M 911.5,1190.5 C 916.874,1208.15 921.374,1226.15 925,1244.5C 925.499,1248.82 925.666,1253.15 925.5,1257.5C 925.005,1259.45 924.672,1261.45 924.5,1263.5C 926.091,1270.46 927.425,1277.46 928.5,1284.5C 926.09,1279.54 924.59,1274.21 924,1268.5C 923.599,1257.82 922.932,1247.15 922,1236.5C 917.409,1223.8 913.909,1210.8 911.5,1197.5C 911.5,1195.17 911.5,1192.83 911.5,1190.5 Z" fill="#eabfd3" />
  <path d="M 905.5,1175.5 C 906.75,1175.58 907.583,1176.24 908,1177.5C 908.962,1182.01 910.129,1186.35 911.5,1190.5C 911.5,1192.83 911.5,1195.17 911.5,1197.5C 909.745,1190.22 907.745,1182.88 905.5,1175.5 Z" fill="#f0aec5" />
  <path d="M 899.5,1155.5 C 906.259,1166.11 910.259,1177.77 911.5,1190.5C 910.129,1186.35 908.962,1182.01 908,1177.5C 907.583,1176.24 906.75,1175.58 905.5,1175.5C 904.571,1171.87 903.737,1168.21 903,1164.5C 902.583,1163.24 901.75,1162.58 900.5,1162.5C 900.007,1160.19 899.674,1157.86 899.5,1155.5 Z" fill="#fbd0e5" />
  <path d="M 900.5,1162.5 C 901.75,1162.58 902.583,1163.24 903,1164.5C 903.737,1168.21 904.571,1171.87 905.5,1175.5C 902.871,1171.62 901.204,1167.29 900.5,1162.5 Z" fill="#f1a5bf" />
  <path d="M 925.5,1257.5 C 927.448,1268.81 929.948,1280.15 933,1291.5C 945.916,1319.46 957.082,1347.8 966.5,1376.5C 965.522,1376.02 964.689,1375.36 964,1374.5C 960.608,1366.05 956.941,1357.72 953,1349.5C 950.129,1340.55 947.462,1331.55 945,1322.5C 943.422,1317.77 941.088,1313.44 938,1309.5C 934.348,1301.38 931.182,1293.05 928.5,1284.5C 927.425,1277.46 926.091,1270.46 924.5,1263.5C 924.672,1261.45 925.005,1259.45 925.5,1257.5 Z" fill="#dcc1d2" />
  <path d="M 804.5,862.5 C 802.994,867.737 803.328,872.737 805.5,877.5C 805.5,878.167 805.5,878.833 805.5,879.5C 804.5,879.5 803.5,879.5 802.5,879.5C 801.947,883.719 800.78,887.719 799,891.5C 797.171,891.565 795.338,891.898 793.5,892.5C 797.186,882.436 800.853,872.436 804.5,862.5 Z" fill="#dbcea4" />
  <path d="M 805.5,879.5 C 801.509,889.478 797.009,899.144 792,908.5C 790,910.5 788,912.5 786,914.5C 782.097,922.074 777.764,929.407 773,936.5C 770.971,938.033 769.138,939.699 767.5,941.5C 766.286,938.871 766.286,936.204 767.5,933.5C 773.741,933.355 775.741,930.355 773.5,924.5C 774.5,924.5 775.5,924.5 776.5,924.5C 777.126,921.685 778.46,919.185 780.5,917C 779.549,916.282 779.383,915.449 780,914.5C 783.928,911.894 786.094,908.227 786.5,903.5C 792.037,902.759 794.037,899.759 792.5,894.5C 792.328,893.508 792.662,892.842 793.5,892.5C 795.338,891.898 797.171,891.565 799,891.5C 800.78,887.719 801.947,883.719 802.5,879.5C 803.5,879.5 804.5,879.5 805.5,879.5 Z" fill="#e9daac" />
  <path d="M 792.5,894.5 C 794.037,899.759 792.037,902.759 786.5,903.5C 787.263,899.63 789.263,896.63 792.5,894.5 Z" fill="#d0c29f" />
  <path d="M 786.5,903.5 C 786.094,908.227 783.928,911.894 780,914.5C 779.383,915.449 779.549,916.282 780.5,917C 778.46,919.185 777.126,921.685 776.5,924.5C 775.5,924.5 774.5,924.5 773.5,924.5C 775.741,930.355 773.741,933.355 767.5,933.5C 769.667,927.828 772.5,922.494 776,917.5C 780.133,913.215 783.633,908.548 786.5,903.5 Z" fill="#d0c6a2" />
  <path d="M 814.5,818.5 C 814.536,827.185 814.203,835.851 813.5,844.5C 812.5,844.5 811.5,844.5 810.5,844.5C 810.33,845.822 810.663,846.989 811.5,848C 810.552,848.483 809.552,848.649 808.5,848.5C 811.344,838.543 813.344,828.543 814.5,818.5 Z" fill="#c0b38b" />
  <path d="M 796.5,1034.5 C 800.043,1036.24 803.709,1037.57 807.5,1038.5C 808.5,1039.83 809.5,1041.17 810.5,1042.5C 804.879,1041.36 800.212,1038.69 796.5,1034.5 Z" fill="#f7a7a5" />
  <path d="M 807.5,1038.5 C 813.435,1041.14 819.102,1044.3 824.5,1048C 829.881,1053.54 835.548,1058.88 841.5,1064C 842.745,1064.79 844.078,1065.29 845.5,1065.5C 847.833,1067.17 849.833,1069.17 851.5,1071.5C 853.833,1075.5 856.167,1079.5 858.5,1083.5C 856.629,1083.14 855.129,1082.14 854,1080.5C 845.196,1068.52 834.696,1058.52 822.5,1050.5C 817.803,1048.82 813.803,1046.16 810.5,1042.5C 809.5,1041.17 808.5,1039.83 807.5,1038.5 Z" fill="#fccbb3" />
  <path d="M 822.5,1050.5 C 834.696,1058.52 845.196,1068.52 854,1080.5C 855.129,1082.14 856.629,1083.14 858.5,1083.5C 861.5,1088.17 864.5,1092.83 867.5,1097.5C 861.188,1091.35 855.355,1084.68 850,1077.5C 843.431,1070.26 836.265,1063.76 828.5,1058C 825.906,1055.91 823.906,1053.41 822.5,1050.5 Z" fill="#fbb4af" />
  <path d="M 767.5,942.5 C 761.456,949.542 755.623,956.876 750,964.5C 749,966.833 748,969.167 747,971.5C 744.372,973.126 742.039,975.126 740,977.5C 738.527,981.779 736.527,985.779 734,989.5C 733.51,990.793 733.343,992.127 733.5,993.5C 729.07,994.426 725.737,993.093 723.5,989.5C 724.072,987.745 724.906,986.078 726,984.5C 734.332,975.13 742.165,965.463 749.5,955.5C 752.525,954.235 755.358,952.568 758,950.5C 757.737,949.049 757.904,947.716 758.5,946.5C 760.517,945.826 762.183,944.659 763.5,943C 764.793,942.51 766.127,942.343 767.5,942.5 Z" fill="#f1dcaf" />
  <path d="M 767.5,933.5 C 766.286,936.204 766.286,938.871 767.5,941.5C 767.5,941.833 767.5,942.167 767.5,942.5C 766.127,942.343 764.793,942.51 763.5,943C 762.183,944.659 760.517,945.826 758.5,946.5C 757.904,947.716 757.737,949.049 758,950.5C 755.358,952.568 752.525,954.235 749.5,955.5C 749.709,954.078 750.209,952.745 751,951.5C 755.712,946.457 760.045,941.123 764,935.5C 765.113,934.695 766.279,934.028 767.5,933.5 Z" fill="#d0c29b" />
  <path d="M 751.5,1018.5 C 756.905,1019.85 762.238,1021.18 767.5,1022.5C 780.19,1025.56 792.524,1029.73 804.5,1035C 806.063,1035.76 807.063,1036.93 807.5,1038.5C 803.709,1037.57 800.043,1036.24 796.5,1034.5C 784.867,1029.79 772.867,1025.96 760.5,1023C 757.177,1021.96 754.177,1020.46 751.5,1018.5 Z" fill="#fbc1ae" />
  <path d="M 721.5,1000.5 C 728.067,1007.04 735.9,1010.37 745,1010.5C 747.122,1012.14 749.789,1013.81 753,1015.5C 753.333,1015.17 753.667,1014.83 754,1014.5C 758.501,1016.34 763.001,1018.01 767.5,1019.5C 767.5,1020.5 767.5,1021.5 767.5,1022.5C 762.238,1021.18 756.905,1019.85 751.5,1018.5C 748.226,1016.03 744.559,1014.36 740.5,1013.5C 733.841,1011.05 727.174,1008.39 720.5,1005.5C 720.216,1003.59 720.549,1001.92 721.5,1000.5 Z" fill="#fcd2b2" />
  <path d="M 723.5,989.5 C 725.737,993.093 729.07,994.426 733.5,993.5C 733.336,996.187 733.503,998.854 734,1001.5C 737.764,1003.63 741.264,1006.13 744.5,1009C 759.47,1015.66 774.804,1021.32 790.5,1026C 798.628,1029.61 806.628,1033.61 814.5,1038C 826.293,1045.63 836.627,1054.8 845.5,1065.5C 844.078,1065.29 842.745,1064.79 841.5,1064C 835.548,1058.88 829.881,1053.54 824.5,1048C 819.102,1044.3 813.435,1041.14 807.5,1038.5C 807.063,1036.93 806.063,1035.76 804.5,1035C 792.524,1029.73 780.19,1025.56 767.5,1022.5C 767.5,1021.5 767.5,1020.5 767.5,1019.5C 763.001,1018.01 758.501,1016.34 754,1014.5C 753.667,1014.83 753.333,1015.17 753,1015.5C 749.789,1013.81 747.122,1012.14 745,1010.5C 735.9,1010.37 728.067,1007.04 721.5,1000.5C 721.646,996.613 722.313,992.946 723.5,989.5 Z" fill="#f8daaf" />
  <path d="M 720.5,1005.5 C 727.174,1008.39 733.841,1011.05 740.5,1013.5C 735.925,1012.9 731.425,1011.9 727,1010.5C 724.849,1010.76 723.182,1011.76 722,1013.5C 720.921,1010.94 720.421,1008.27 720.5,1005.5 Z" fill="#ef9b9c" />
  <path d="M 1179.5,1113.5 C 1165.68,1114.71 1151.68,1115.38 1137.5,1115.5C 1151.3,1113.96 1165.3,1113.29 1179.5,1113.5 Z" fill="#7b696e" />
  <path d="M 1193.5,1113.5 C 1195.5,1113.5 1197.5,1113.5 1199.5,1113.5C 1199.5,1166.17 1199.5,1218.83 1199.5,1271.5C 1198.83,1271.5 1198.17,1271.5 1197.5,1271.5C 1197.19,1222.15 1197.52,1172.82 1198.5,1123.5C 1198.71,1119.08 1197.04,1115.75 1193.5,1113.5 Z" fill="#f0effe" />
  <path d="M 1188.5,1111.5 C 1188.5,1111.17 1188.5,1110.83 1188.5,1110.5C 1192.17,1110.5 1195.83,1110.5 1199.5,1110.5C 1199.5,1111.5 1199.5,1112.5 1199.5,1113.5C 1197.5,1113.5 1195.5,1113.5 1193.5,1113.5C 1190.17,1113.5 1186.83,1113.5 1183.5,1113.5C 1187.65,1112.68 1191.98,1112.18 1196.5,1112C 1193.85,1111.5 1191.19,1111.34 1188.5,1111.5 Z" fill="#6c584a" />
  <path d="M 1188.5,1111.5 C 1191.19,1111.34 1193.85,1111.5 1196.5,1112C 1191.98,1112.18 1187.65,1112.68 1183.5,1113.5C 1182.17,1113.5 1180.83,1113.5 1179.5,1113.5C 1165.3,1113.29 1151.3,1113.96 1137.5,1115.5C 1124.2,1116.58 1110.87,1117.24 1097.5,1117.5C 1094.81,1117.66 1092.15,1117.5 1089.5,1117C 1092.69,1116.82 1095.69,1116.32 1098.5,1115.5C 1106.58,1115.6 1114.58,1114.93 1122.5,1113.5C 1132.15,1112.75 1141.81,1112.42 1151.5,1112.5C 1163.84,1112.33 1176.17,1111.99 1188.5,1111.5 Z" fill="#513932" />
  <path d="M 1188.5,1110.5 C 1188.5,1110.83 1188.5,1111.17 1188.5,1111.5C 1176.17,1111.99 1163.84,1112.33 1151.5,1112.5C 1151.5,1112.17 1151.5,1111.83 1151.5,1111.5C 1163.82,1110.91 1176.16,1110.57 1188.5,1110.5 Z" fill="#8e7156" />
  <path d="M 1122.5,1112.5 C 1122.5,1112.83 1122.5,1113.17 1122.5,1113.5C 1114.58,1114.93 1106.58,1115.6 1098.5,1115.5C 1089.32,1115.72 1080.32,1116.38 1071.5,1117.5C 1058.64,1117.38 1045.97,1118.05 1033.5,1119.5C 1030.17,1119.5 1026.83,1119.5 1023.5,1119.5C 1026.5,1118.83 1029.5,1118.17 1032.5,1117.5C 1062.45,1115.34 1092.45,1113.67 1122.5,1112.5 Z" fill="#e8d0ad" />
  <path d="M 1098.5,1115.5 C 1095.69,1116.32 1092.69,1116.82 1089.5,1117C 1092.15,1117.5 1094.81,1117.66 1097.5,1117.5C 1089,1118.41 1080.33,1119.07 1071.5,1119.5C 1071.5,1118.83 1071.5,1118.17 1071.5,1117.5C 1080.32,1116.38 1089.32,1115.72 1098.5,1115.5 Z" fill="#664f4d" />
  <path d="M 1144.5,1111.5 C 1146.83,1111.5 1149.17,1111.5 1151.5,1111.5C 1151.5,1111.83 1151.5,1112.17 1151.5,1112.5C 1141.81,1112.42 1132.15,1112.75 1122.5,1113.5C 1122.5,1113.17 1122.5,1112.83 1122.5,1112.5C 1129.79,1111.61 1137.12,1111.27 1144.5,1111.5 Z" fill="#e1c2a0" />
  <path d="M 1071.5,1117.5 C 1071.5,1118.17 1071.5,1118.83 1071.5,1119.5C 1068.17,1119.5 1064.83,1119.5 1061.5,1119.5C 1052.17,1119.5 1042.83,1119.5 1033.5,1119.5C 1045.97,1118.05 1058.64,1117.38 1071.5,1117.5 Z" fill="#604b35" />
  <path d="M 1194.5,983.5 C 1196.17,983.5 1197.83,983.5 1199.5,983.5C 1199.5,1025.83 1199.5,1068.17 1199.5,1110.5C 1195.83,1110.5 1192.17,1110.5 1188.5,1110.5C 1176.16,1110.57 1163.82,1110.91 1151.5,1111.5C 1149.17,1111.5 1146.83,1111.5 1144.5,1111.5C 1158.73,1110.38 1173.06,1108.88 1187.5,1107C 1190.2,1106.31 1192.36,1104.81 1194,1102.5C 1194.2,1097.91 1194.7,1093.41 1195.5,1089C 1194.5,1053.91 1194.17,1018.74 1194.5,983.5 Z" fill="#f6dfac" />
  <path d="M 1197.5,1271.5 C 1198.17,1271.5 1198.83,1271.5 1199.5,1271.5C 1199.5,1380.5 1199.5,1489.5 1199.5,1598.5C 1198.83,1598.5 1198.17,1598.5 1197.5,1598.5C 1197.5,1489.5 1197.5,1380.5 1197.5,1271.5 Z" fill="#d9d8e8" />
  <path d="M 991.5,1556.5 C 992.277,1540.51 992.611,1524.51 992.5,1508.5C 992.5,1508.17 992.5,1507.83 992.5,1507.5C 993.436,1484.35 991.103,1461.68 985.5,1439.5C 984.327,1430.45 982.827,1421.45 981,1412.5C 976.502,1404.68 973.836,1396.34 973,1387.5C 977.101,1394.46 980.434,1401.8 983,1409.5C 989.759,1443.66 993.592,1478.16 994.5,1513C 994.383,1527.71 993.383,1542.21 991.5,1556.5 Z" fill="#d7b9cb" />
  <path d="M 991.5,1567.5 C 990.522,1577.8 989.855,1588.13 989.5,1598.5C 988.167,1598.5 986.833,1598.5 985.5,1598.5C 986.336,1589.81 987.336,1581.15 988.5,1572.5C 988.972,1570.47 989.972,1568.8 991.5,1567.5 Z" fill="#d6b3c2" />
  <path d="M 992.5,1508.5 C 992.611,1524.51 992.277,1540.51 991.5,1556.5C 991.5,1560.17 991.5,1563.83 991.5,1567.5C 989.972,1568.8 988.972,1570.47 988.5,1572.5C 989.65,1551 990.983,1529.67 992.5,1508.5 Z" fill="#dca7ba" />
  <path d="M 971.5,1385.5 C 972.833,1386.17 972.833,1386.17 971.5,1385.5 Z" fill="#deccde" />
  <path d="M 970.5,1382.5 C 971.833,1383.17 971.833,1383.17 970.5,1382.5 Z" fill="#e1d1e2" />
  <path d="M 985.5,1439.5 C 991.103,1461.68 993.436,1484.35 992.5,1507.5C 990.259,1484.99 987.926,1462.33 985.5,1439.5 Z" fill="#cda5b9" />
  <path d="M 4.5,1487.5 C 4.22261,1492.89 3.55594,1498.22 2.5,1503.5C 1.5,1503.5 0.5,1503.5 -0.5,1503.5C -0.5,1501.17 -0.5,1498.83 -0.5,1496.5C 1.93767,1493.9 3.60433,1490.9 4.5,1487.5 Z" fill="#f7daf6" />
  <path d="M 10.5,1470.5 C 7.19431,1486.37 4.52764,1502.37 2.5,1518.5C 1.95442,1521.65 0.954424,1524.65 -0.5,1527.5C -0.5,1519.5 -0.5,1511.5 -0.5,1503.5C 0.5,1503.5 1.5,1503.5 2.5,1503.5C 3.55594,1498.22 4.22261,1492.89 4.5,1487.5C 5.71119,1481.53 7.71119,1475.87 10.5,1470.5 Z" fill="#fdc3df" />
  <path d="M 2.5,1518.5 C 2.5,1538.5 2.5,1558.5 2.5,1578.5C 1.5,1578.5 0.5,1578.5 -0.5,1578.5C -0.5,1561.5 -0.5,1544.5 -0.5,1527.5C 0.954424,1524.65 1.95442,1521.65 2.5,1518.5 Z" fill="#feb1d0" />
  <path d="M 4.5,1483.5 C 4.5,1484.83 4.5,1486.17 4.5,1487.5C 3.60433,1490.9 1.93767,1493.9 -0.5,1496.5C -0.5,1493.5 -0.5,1490.5 -0.5,1487.5C 1.57349,1486.7 3.24016,1485.37 4.5,1483.5 Z" fill="#ece8fd" />
  <path d="M -0.5,1586.5 C 0.5,1586.5 1.5,1586.5 2.5,1586.5C 2.66409,1589.19 2.49742,1591.85 2,1594.5C 1.58309,1595.76 0.749754,1596.42 -0.5,1596.5C -0.5,1593.17 -0.5,1589.83 -0.5,1586.5 Z" fill="#f48eb3" />
  <path d="M 307.5,1022.5 C 307.047,1023.46 306.381,1024.29 305.5,1025C 299.816,1027.43 294.816,1030.76 290.5,1035C 286.699,1035.74 283.366,1037.24 280.5,1039.5C 279.71,1040.79 278.71,1041.96 277.5,1043C 272.06,1045.88 266.393,1048.55 260.5,1051C 258.959,1052.37 257.625,1053.87 256.5,1055.5C 247.033,1061.08 238.033,1067.41 229.5,1074.5C 224.884,1075.94 220.884,1078.44 217.5,1082C 216.552,1082.48 215.552,1082.65 214.5,1082.5C 219.373,1078.14 224.706,1074.31 230.5,1071C 237.018,1065.5 242.351,1059.16 246.5,1052C 250.163,1052.74 253.83,1052.41 257.5,1051C 273.733,1040.72 290.4,1031.22 307.5,1022.5 Z" fill="#fde9c8" />
  <path d="M 301.5,1029.5 C 300.797,1031.72 299.464,1033.55 297.5,1035C 291.186,1037.96 284.853,1040.96 278.5,1044C 277.167,1045.67 275.833,1047.33 274.5,1049C 267.99,1049.95 262.657,1052.95 258.5,1058C 253.282,1059.89 249.282,1063.22 246.5,1068C 241.827,1071.18 236.827,1073.68 231.5,1075.5C 239.811,1068.86 248.144,1062.19 256.5,1055.5C 257.625,1053.87 258.959,1052.37 260.5,1051C 266.393,1048.55 272.06,1045.88 277.5,1043C 278.71,1041.96 279.71,1040.79 280.5,1039.5C 284.168,1038.44 287.835,1037.28 291.5,1036C 294.691,1033.57 298.025,1031.41 301.5,1029.5 Z" fill="#fdd2d3" />
  <path d="M 335.5,1007.5 C 333.527,1008.81 331.861,1010.47 330.5,1012.5C 328.486,1012.39 326.82,1013.06 325.5,1014.5C 321.765,1016.87 317.765,1018.87 313.5,1020.5C 310.43,1023.58 307.097,1026.24 303.5,1028.5C 302.833,1028.83 302.167,1029.17 301.5,1029.5C 298.025,1031.41 294.691,1033.57 291.5,1036C 287.835,1037.28 284.168,1038.44 280.5,1039.5C 283.366,1037.24 286.699,1035.74 290.5,1035C 294.816,1030.76 299.816,1027.43 305.5,1025C 306.381,1024.29 307.047,1023.46 307.5,1022.5C 309.77,1020.03 312.437,1018.03 315.5,1016.5C 322.304,1013.49 328.971,1010.49 335.5,1007.5 Z" fill="#fee1ce" />
  <path d="M 325.5,1014.5 C 324.191,1019.64 320.858,1022.47 315.5,1023C 312.361,1026.74 308.361,1028.57 303.5,1028.5C 307.097,1026.24 310.43,1023.58 313.5,1020.5C 317.765,1018.87 321.765,1016.87 325.5,1014.5 Z" fill="#fdcdd1" />
  <path d="M 435.5,953.5 C 433.577,956.603 431.41,959.603 429,962.5C 427.362,964.734 425.195,966.067 422.5,966.5C 423.11,965.609 423.443,964.609 423.5,963.5C 427.475,960.196 431.475,956.863 435.5,953.5 Z" fill="#d2bdab" />
  <path d="M 377.5,983.5 C 376.432,986.075 374.765,988.242 372.5,990C 362.076,995.818 351.409,1001.15 340.5,1006C 338.045,1009.64 334.711,1011.81 330.5,1012.5C 331.861,1010.47 333.527,1008.81 335.5,1007.5C 335.414,1006.5 335.748,1005.67 336.5,1005C 343.058,1002.94 349.058,999.937 354.5,996C 357.592,996.107 359.925,994.941 361.5,992.5C 363.482,992.005 365.482,991.505 367.5,991C 370.164,987.489 373.498,984.989 377.5,983.5 Z" fill="#fcc5c8" />
  <path d="M 387.5,969.5 C 384.523,972.639 381.856,975.972 379.5,979.5C 373.428,983.931 367.428,988.265 361.5,992.5C 359.925,994.941 357.592,996.107 354.5,996C 349.058,999.937 343.058,1002.94 336.5,1005C 335.748,1005.67 335.414,1006.5 335.5,1007.5C 328.971,1010.49 322.304,1013.49 315.5,1016.5C 321.662,1012.53 327.996,1008.7 334.5,1005C 338.39,1002.23 342.057,999.229 345.5,996C 350.167,994 354.833,992 359.5,990C 369.01,983.311 378.344,976.477 387.5,969.5 Z" fill="#fee7c4" />
  <path d="M 400.5,970.5 C 400.423,971.75 399.756,972.583 398.5,973C 393.021,973.282 388.354,975.282 384.5,979C 382.846,979.608 381.179,980.108 379.5,980.5C 379.5,980.167 379.5,979.833 379.5,979.5C 382.956,977.217 386.29,974.717 389.5,972C 393.114,971.064 396.78,970.564 400.5,970.5 Z" fill="#fcc9ce" />
  <path d="M 379.5,979.5 C 379.5,979.833 379.5,980.167 379.5,980.5C 378.833,981.5 378.167,982.5 377.5,983.5C 373.498,984.989 370.164,987.489 367.5,991C 365.482,991.505 363.482,992.005 361.5,992.5C 367.428,988.265 373.428,983.931 379.5,979.5 Z" fill="#fee0ca" />
  <path d="M 423.5,963.5 C 423.443,964.609 423.11,965.609 422.5,966.5C 414.836,966.589 407.503,967.923 400.5,970.5C 396.78,970.564 393.114,971.064 389.5,972C 386.29,974.717 382.956,977.217 379.5,979.5C 381.856,975.972 384.523,972.639 387.5,969.5C 389.214,968.262 391.214,967.595 393.5,967.5C 399.358,967.295 405.025,966.128 410.5,964C 414.821,963.501 419.154,963.334 423.5,963.5 Z" fill="#fdddca" />
  <path d="M -0.5,767.5 C 0.833333,767.5 2.16667,767.5 3.5,767.5C 2.70165,804.771 2.36832,842.104 2.5,879.5C 1.5,879.5 0.5,879.5 -0.5,879.5C -0.5,842.167 -0.5,804.833 -0.5,767.5 Z" fill="#fdfed3" />
  <path d="M -0.5,879.5 C 0.5,879.5 1.5,879.5 2.5,879.5C 3.1424,930.87 3.1424,982.536 2.5,1034.5C 1.5,1034.5 0.5,1034.5 -0.5,1034.5C -0.5,982.833 -0.5,931.167 -0.5,879.5 Z" fill="#fefccb" />
  <path d="M -0.5,1034.5 C 0.5,1034.5 1.5,1034.5 2.5,1034.5C 2.53856,1058.17 2.53856,1082.01 2.5,1106C 2.75349,1115.21 3.42015,1124.37 4.5,1133.5C 2.83333,1133.5 1.16667,1133.5 -0.5,1133.5C -0.5,1100.5 -0.5,1067.5 -0.5,1034.5 Z" fill="#fef5c4" />
  <path d="M 177.5,1119.5 C 177.291,1120.92 176.791,1122.26 176,1123.5C 169.529,1129.13 164.529,1135.8 161,1143.5C 159.693,1145.19 158.193,1146.53 156.5,1147.5C 157.11,1146.61 157.443,1145.61 157.5,1144.5C 158.807,1141.89 160.14,1139.22 161.5,1136.5C 161.291,1135.91 160.957,1135.41 160.5,1135C 161.942,1134.62 162.942,1133.79 163.5,1132.5C 166.194,1130.67 168.194,1128.34 169.5,1125.5C 171.709,1122.91 174.376,1120.91 177.5,1119.5 Z" fill="#f5b5c9" />
  <path d="M 149.5,1133.5 C 152.833,1133.5 156.167,1133.5 159.5,1133.5C 159.5,1134.83 158.833,1135.5 157.5,1135.5C 149.5,1135.5 141.5,1135.5 133.5,1135.5C 133.918,1134.78 134.584,1134.28 135.5,1134C 140.155,1133.5 144.821,1133.33 149.5,1133.5 Z" fill="#d6d0c9" />
  <path d="M 157.5,1144.5 C 157.443,1145.61 157.11,1146.61 156.5,1147.5C 151.93,1154.64 148.43,1162.31 146,1170.5C 141.152,1174.86 137.819,1180.19 136,1186.5C 132.578,1191.68 128.911,1196.68 125,1201.5C 121.861,1210.45 117.194,1218.45 111,1225.5C 107.038,1234.76 102.038,1243.42 96,1251.5C 91.6176,1261.31 87.6176,1271.31 84,1281.5C 82.6366,1283.68 81.1366,1285.68 79.5,1287.5C 77.5074,1290.3 75.5074,1292.96 73.5,1295.5C 81.7525,1274.91 91.2525,1254.91 102,1235.5C 114,1216.17 126,1196.83 138,1177.5C 143.593,1166.64 149.426,1155.98 155.5,1145.5C 156.167,1145.17 156.833,1144.83 157.5,1144.5 Z" fill="#fcdaec" />
  <path d="M 163.5,1132.5 C 162.942,1133.79 161.942,1134.62 160.5,1135C 160.957,1135.41 161.291,1135.91 161.5,1136.5C 160.14,1139.22 158.807,1141.89 157.5,1144.5C 156.833,1144.83 156.167,1145.17 155.5,1145.5C 156.487,1142.85 157.487,1140.19 158.5,1137.5C 158.137,1136.82 157.804,1136.15 157.5,1135.5C 158.833,1135.5 159.5,1134.83 159.5,1133.5C 160.708,1132.77 162.041,1132.43 163.5,1132.5 Z" fill="#fee0eb" />
  <path d="M 144.5,1132.5 C 146.415,1132.22 148.081,1132.55 149.5,1133.5C 144.821,1133.33 140.155,1133.5 135.5,1134C 134.584,1134.28 133.918,1134.78 133.5,1135.5C 132.5,1135.5 131.5,1135.5 130.5,1135.5C 86.8446,1136.81 43.1779,1137.48 -0.5,1137.5C -0.5,1136.17 -0.5,1134.83 -0.5,1133.5C 1.16667,1133.5 2.83333,1133.5 4.5,1133.5C 5.62656,1134.12 6.62656,1134.96 7.5,1136C 53.1901,1135.86 98.8568,1134.69 144.5,1132.5 Z" fill="#f6efd4" />
  <path d="M 130.5,1135.5 C 93.9358,1137.79 57.2691,1139.46 20.5,1140.5C 17.1246,1139.87 13.7913,1139.54 10.5,1139.5C 6.8412,1140.28 3.17453,1140.94 -0.5,1141.5C -0.5,1140.17 -0.5,1138.83 -0.5,1137.5C 43.1779,1137.48 86.8446,1136.81 130.5,1135.5 Z" fill="#eeebdc" />
  <path d="M 190.5,1105.5 C 190.833,1105.5 191.167,1105.5 191.5,1105.5C 188.059,1109.37 184.393,1113.04 180.5,1116.5C 179.833,1117.83 178.833,1118.83 177.5,1119.5C 174.376,1120.91 171.709,1122.91 169.5,1125.5C 172.392,1121.68 175.392,1117.85 178.5,1114C 182.68,1111.3 186.68,1108.47 190.5,1105.5 Z" fill="#fed6d2" />
  <path d="M 198.5,1094.5 C 196.543,1098.77 193.876,1102.44 190.5,1105.5C 186.68,1108.47 182.68,1111.3 178.5,1114C 175.392,1117.85 172.392,1121.68 169.5,1125.5C 168.194,1128.34 166.194,1130.67 163.5,1132.5C 162.041,1132.43 160.708,1132.77 159.5,1133.5C 156.167,1133.5 152.833,1133.5 149.5,1133.5C 148.081,1132.55 146.415,1132.22 144.5,1132.5C 149.428,1131.89 154.428,1131.06 159.5,1130C 172.097,1117.56 185.097,1105.73 198.5,1094.5 Z" fill="#fbe5ca" />
  <path d="M 225.5,1079.5 C 223.512,1084.34 219.845,1087.01 214.5,1087.5C 215.29,1086.21 216.29,1085.04 217.5,1084C 220.592,1083.15 223.259,1081.65 225.5,1079.5 Z" fill="#feccd2" />
  <path d="M 256.5,1055.5 C 248.144,1062.19 239.811,1068.86 231.5,1075.5C 228.929,1075.98 226.929,1077.31 225.5,1079.5C 223.259,1081.65 220.592,1083.15 217.5,1084C 216.29,1085.04 215.29,1086.21 214.5,1087.5C 212.139,1087.67 209.806,1088.01 207.5,1088.5C 207.5,1089.5 207.5,1090.5 207.5,1091.5C 206.448,1091.35 205.448,1091.52 204.5,1092C 199.936,1096.4 195.602,1100.9 191.5,1105.5C 191.167,1105.5 190.833,1105.5 190.5,1105.5C 193.876,1102.44 196.543,1098.77 198.5,1094.5C 203.109,1089.53 208.443,1085.53 214.5,1082.5C 215.552,1082.65 216.552,1082.48 217.5,1082C 220.884,1078.44 224.884,1075.94 229.5,1074.5C 238.033,1067.41 247.033,1061.08 256.5,1055.5 Z" fill="#fee0cd" />
  <path d="M 214.5,1087.5 C 204.425,1096.41 194.425,1105.57 184.5,1115C 183.255,1115.79 181.922,1116.29 180.5,1116.5C 184.393,1113.04 188.059,1109.37 191.5,1105.5C 195.602,1100.9 199.936,1096.4 204.5,1092C 205.448,1091.52 206.448,1091.35 207.5,1091.5C 207.5,1090.5 207.5,1089.5 207.5,1088.5C 209.806,1088.01 212.139,1087.67 214.5,1087.5 Z" fill="#fec9d1" />
  <path d="M 79.5,1287.5 C 68.556,1308.43 58.056,1329.76 48,1351.5C 42.251,1365.45 37.251,1379.79 33,1394.5C 31.4138,1396.67 30.0804,1399 29,1401.5C 22.526,1424.42 16.3593,1447.42 10.5,1470.5C 7.71119,1475.87 5.71119,1481.53 4.5,1487.5C 4.5,1486.17 4.5,1484.83 4.5,1483.5C 15.4137,1432.26 31.247,1382.59 52,1334.5C 58.1508,1320.86 65.3175,1307.86 73.5,1295.5C 75.5074,1292.96 77.5074,1290.3 79.5,1287.5 Z" fill="#fbd6ee" />
</svg>